<svg width="257" height="73" viewBox="0 0 257 73" fill="none" xmlns="http://www.w3.org/2000/svg">
<path d="M112.729 35.4248C113.012 34.7962 112.404 34.1885 111.775 34.4714C111.639 34.5343 111.534 34.639 111.471 34.7752C111.188 35.4039 111.796 36.0116 112.425 35.7287C112.561 35.6658 112.666 35.5611 112.729 35.4248Z" fill="white" fill-opacity="0.6"/>
<path d="M213.285 70.4248C213.567 69.7962 212.961 69.1885 212.334 69.4714C212.198 69.5343 212.094 69.639 212.031 69.7752C211.738 70.4039 212.355 71.0116 212.982 70.7287C213.118 70.6658 213.222 70.561 213.285 70.4248Z" fill="white" fill-opacity="0.9"/>
<path d="M44.2711 70.4248C43.989 69.7962 44.5951 69.1885 45.222 69.4714C45.3579 69.5343 45.4624 69.639 45.525 69.7752C45.8176 70.4039 45.2011 71.0116 44.5741 70.7287C44.4383 70.6658 44.3338 70.561 44.2711 70.4248Z" fill="white" fill-opacity="0.9"/>
<path d="M227.427 36.792C227.145 36.1634 227.751 35.5557 228.378 35.8386C228.514 35.9015 228.619 36.0062 228.681 36.1424C228.974 36.7711 228.357 37.3788 227.73 37.0959C227.594 37.033 227.49 36.9282 227.427 36.792Z" fill="white" fill-opacity="0.6"/>
<path d="M30.1288 36.792C30.4109 36.1634 29.8048 35.5557 29.1779 35.8386C29.042 35.9015 28.9375 36.0062 28.8748 36.1424C28.5822 36.7711 29.1988 37.3788 29.8257 37.0959C29.9616 37.033 30.0661 36.9282 30.1288 36.792Z" fill="white" fill-opacity="0.6"/>
<path d="M245.627 71.825C245.345 71.1964 245.952 70.5887 246.581 70.8716C246.717 70.9344 246.822 71.0392 246.885 71.1754C247.168 71.804 246.56 72.4117 245.931 72.1288C245.795 72.066 245.69 71.9612 245.627 71.825Z" fill="white" fill-opacity="0.6"/>
<path d="M11.9286 71.825C12.2115 71.1964 11.6038 70.5887 10.9752 70.8716C10.839 70.9344 10.7342 71.0392 10.6713 71.1754C10.3884 71.804 10.9961 72.4117 11.6248 72.1288C11.761 72.066 11.8658 71.9612 11.9286 71.825Z" fill="white" fill-opacity="0.6"/>
<path d="M255.427 48.0247C255.145 47.3961 255.752 46.7884 256.381 47.0713C256.517 47.1341 256.622 47.2389 256.685 47.3751C256.968 48.0037 256.36 48.6114 255.731 48.3285C255.595 48.2657 255.49 48.1609 255.427 48.0247Z" fill="white" fill-opacity="0.9"/>
<path d="M2.12857 48.0247C2.41146 47.3961 1.80376 46.7884 1.17512 47.0713C1.03892 47.1341 0.934152 47.2389 0.871288 47.3751C0.5884 48.0037 1.19607 48.6114 1.82471 48.3285C1.96092 48.2657 2.0657 48.1609 2.12857 48.0247Z" fill="white" fill-opacity="0.9"/>
<path d="M232.709 52.8496C232.991 52.221 232.385 51.6133 231.758 51.8962C231.622 51.9591 231.518 52.0639 231.455 52.2001C231.163 52.8287 231.779 53.4364 232.406 53.1535C232.542 53.0906 232.647 52.9859 232.709 52.8496Z" fill="white" fill-opacity="0.6"/>
<path d="M24.8468 52.8496C24.5647 52.221 25.1707 51.6133 25.7977 51.8962C25.9335 51.9591 26.038 52.0639 26.1007 52.2001C26.3933 52.8287 25.7768 53.4364 25.1498 53.1535C25.014 53.0906 24.9095 52.9859 24.8468 52.8496Z" fill="white" fill-opacity="0.6"/>
<path d="M216.085 20.0247C216.367 19.396 215.761 18.7884 215.134 19.0713C214.998 19.1341 214.894 19.2389 214.831 19.3751C214.538 20.0037 215.155 20.6114 215.782 20.3285C215.918 20.2657 216.022 20.1609 216.085 20.0247Z" fill="white" fill-opacity="0.9"/>
<path d="M41.4712 20.0247C41.1891 19.396 41.7951 18.7884 42.4221 19.0713C42.558 19.1341 42.6624 19.2389 42.7251 19.3751C43.0177 20.0037 42.4012 20.6114 41.7742 20.3285C41.6384 20.2657 41.5339 20.1609 41.4712 20.0247Z" fill="white" fill-opacity="0.9"/>
<path d="M202.729 1.76689C203.011 1.13825 202.405 0.530562 201.778 0.81345C201.642 0.876314 201.538 0.981085 201.475 1.11729C201.182 1.74593 201.799 2.35362 202.426 2.07073C202.562 2.00787 202.666 1.90309 202.729 1.76689Z" fill="white" fill-opacity="0.6"/>
</svg>
