<svg width="1330" height="681" viewBox="0 0 1330 681" fill="none" xmlns="http://www.w3.org/2000/svg">
<path d="M46.0946 677.153H0V3.84747H54.7373C100.592 3.84747 120.998 31.1003 120.998 92.6596V272.208C120.998 314.209 106.354 333.767 81.1457 341.141V350.76C106.354 357.493 120.998 377.051 120.998 421.297V597.318C120.998 635.151 124.359 658.877 130.841 677.153H83.3064C76.8243 658.877 74.9037 634.831 74.9037 597.318V403.983C74.9037 382.501 69.1419 374.806 56.6579 374.806H46.0946V677.153ZM46.0946 60.5975V317.095H56.6579C69.1419 317.095 74.9037 309.4 74.9037 287.597V87.8503C74.9037 68.2924 69.1419 60.5975 56.6579 60.5975H46.0946Z" fill="white"/>
<path d="M133.041 594.432V86.5678C133.041 27.2529 153.448 0 193.541 0C233.393 0 254.04 27.2529 254.04 86.5678V594.432C254.04 653.427 233.873 681 193.541 681C153.448 681 133.041 653.427 133.041 594.432ZM179.136 81.1173V599.562C179.136 616.555 184.898 624.25 193.541 624.25C202.183 624.25 207.945 616.555 207.945 599.562V81.1173C207.945 64.4449 202.183 56.75 193.541 56.75C184.898 56.75 179.136 64.4449 179.136 81.1173Z" fill="white"/>
<path d="M266.34 594.432V86.5678C266.34 27.2529 286.746 0 326.839 0C366.692 0 387.338 27.2529 387.338 86.5678V594.432C387.338 653.427 367.172 681 326.839 681C286.746 681 266.34 653.427 266.34 594.432ZM312.434 81.1173V599.562C312.434 616.555 318.196 624.25 326.839 624.25C335.482 624.25 341.244 616.555 341.244 599.562V81.1173C341.244 64.4449 335.482 56.75 326.839 56.75C318.196 56.75 312.434 64.4449 312.434 81.1173Z" fill="white"/>
<path d="M443.572 677.153H401.319L400.599 3.84747H461.338L472.141 169.288C476.703 246.879 481.024 334.729 483.665 400.777H490.867C493.508 335.37 497.589 246.558 502.151 168.968L512.954 3.84747H573.213V677.153H531.44L532.16 439.572C532.4 345.309 536.722 215.778 538.642 164.479H530.96L499.75 677.153H475.262L443.332 164.479H435.65C437.57 217.061 441.652 345.63 442.372 439.572L443.572 677.153Z" fill="white"/>
<path d="M630.325 677.153H588.072L587.351 3.84747H648.091L658.894 169.288C663.455 246.879 667.777 334.729 670.418 400.777H677.62C680.261 335.37 684.342 246.558 688.904 168.968L699.707 3.84747H759.966V677.153H718.193L718.913 439.572C719.153 345.309 723.474 215.778 725.395 164.479H717.713L686.503 677.153H662.015L630.085 164.479H622.402C624.323 217.061 628.404 345.63 629.125 439.572L630.325 677.153Z" fill="white"/>
<path d="M808.435 677.153H761.86L793.31 3.84747H860.051L891.501 677.153H845.167L839.405 480.291H813.957L808.435 677.153ZM818.518 325.11L815.157 425.144H838.204L835.083 325.11C833.403 259.703 832.203 202.953 830.522 134.982H823.08C821.399 202.953 820.199 258.421 818.518 325.11Z" fill="white"/>
<path d="M948.84 677.153H902.746V60.5975H869.855V3.84747H981.49V60.5975H948.84V677.153Z" fill="white"/>
<path d="M1075.66 677.153H984.433V3.84747H1075.66V60.5975H1030.53V295.292H1068.7V352.042H1030.53V620.403H1075.66V677.153Z" fill="white"/>
<path d="M1078.29 594.432V453.359L1124.39 446.305V599.562C1124.39 616.555 1130.15 624.25 1138.79 624.25C1147.44 624.25 1153.2 616.555 1153.2 599.562V495.36C1153.2 441.175 1135.91 396.609 1117.91 350.119C1098.46 297.857 1078.29 243.672 1078.29 176.021V86.5678C1078.29 27.2529 1098.94 0 1138.79 0C1178.89 0 1199.29 27.2529 1199.29 86.5678V213.855L1153.2 221.229V81.1173C1153.2 64.4449 1147.44 56.75 1138.79 56.75C1130.15 56.75 1124.39 64.4449 1124.39 81.1173V176.021C1124.39 227.962 1141.67 272.208 1159.68 319.339C1179.13 370.638 1199.29 424.823 1199.29 495.36V594.432C1199.29 653.427 1178.89 681 1138.79 681C1098.94 681 1078.29 653.427 1078.29 594.432Z" fill="white"/>
<path d="M1255.1 258.742L1209 251.367V86.5678C1209 27.2529 1229.41 0 1269.5 0C1309.35 0 1330 27.2529 1330 86.5678V212.893C1330 352.684 1292.31 334.088 1292.31 471.314V541.85H1246.21V471.314C1246.21 317.415 1283.91 337.935 1283.91 212.893V81.1173C1283.91 64.4449 1278.14 56.75 1269.5 56.75C1260.86 56.75 1255.1 64.4449 1255.1 81.1173V258.742ZM1293.27 677.153H1245.73V589.623H1293.27V677.153Z" fill="white"/>
</svg>
